<svg width="25" height="24" viewBox="0 0 25 24" fill="none" xmlns="http://www.w3.org/2000/svg">
<g clip-path="url(#clip0_1_765)">
<path d="M10.8267 5C10.8267 4.46957 11.0374 3.96086 11.4125 3.58579C11.7876 3.21071 12.2963 3 12.8267 3C13.3572 3 13.8659 3.21071 14.2409 3.58579C14.616 3.96086 14.8267 4.46957 14.8267 5C15.9751 5.54303 16.9541 6.38833 17.6588 7.4453C18.3634 8.50227 18.7672 9.73107 18.8267 11V14C18.902 14.6217 19.1222 15.2171 19.4695 15.7381C19.8169 16.2592 20.2818 16.6914 20.8267 17H4.82672C5.37166 16.6914 5.83653 16.2592 6.18391 15.7381C6.53129 15.2171 6.75147 14.6217 6.82672 14V11C6.88628 9.73107 7.29002 8.50227 7.99467 7.4453C8.69932 6.38833 9.67831 5.54303 10.8267 5" stroke="#F3F5FF" stroke-width="1.5" stroke-linecap="round" stroke-linejoin="round"/>
<path d="M9.82672 17V18C9.82672 18.7956 10.1428 19.5587 10.7054 20.1213C11.268 20.6839 12.0311 21 12.8267 21C13.6224 21 14.3854 20.6839 14.948 20.1213C15.5107 19.5587 15.8267 18.7956 15.8267 18V17" stroke="#F3F5FF" stroke-width="1.5" stroke-linecap="round" stroke-linejoin="round"/>
</g>
<defs>
<clipPath id="clip0_1_765">
<rect width="24" height="24" fill="white" transform="translate(0.826721)"/>
</clipPath>
</defs>
</svg>
