<svg width="17" height="16" viewBox="0 0 17 16" fill="none" xmlns="http://www.w3.org/2000/svg">
<path d="M1.83333 11.9507C1.83333 11.5458 1.93652 11.1476 2.13316 10.7936L6.2571 3.37054C6.62266 2.71254 7.2587 2.24826 7.99681 2.10064V2.10064C8.32898 2.0342 8.67101 2.0342 9.00318 2.10064V2.10064C9.74129 2.24826 10.3773 2.71254 10.7429 3.37054L14.8668 10.7936C15.0635 11.1476 15.1667 11.5458 15.1667 11.9507V11.9507C15.1667 13.2666 14.0999 14.3333 12.7841 14.3333H4.21593C2.90005 14.3333 1.83333 13.2666 1.83333 11.9507V11.9507Z" stroke="#F2883D" stroke-width="1.5"/>
<path d="M8.49995 5.99996L8.49995 8.66663" stroke="#F2883D" stroke-width="1.5" stroke-linecap="round" stroke-linejoin="round"/>
<path d="M8.49995 10.6667L8.49995 11" stroke="#F2883D" stroke-width="1.5" stroke-linecap="round" stroke-linejoin="round"/>
</svg>
