<svg width="21" height="20" viewBox="0 0 21 20" fill="none" xmlns="http://www.w3.org/2000/svg">
<g clip-path="url(#clip0_1_1188)">
<path d="M9.04626 4.16667C9.04626 3.72464 9.22186 3.30072 9.53442 2.98816C9.84698 2.67559 10.2709 2.5 10.7129 2.5C11.155 2.5 11.5789 2.67559 11.8914 2.98816C12.204 3.30072 12.3796 3.72464 12.3796 4.16667C13.3366 4.61919 14.1524 5.32361 14.7396 6.20442C15.3268 7.08523 15.6633 8.10923 15.7129 9.16667V11.6667C15.7756 12.1848 15.9591 12.6809 16.2486 13.1151C16.5381 13.5493 16.9255 13.9095 17.3796 14.1667H4.04626C4.50038 13.9095 4.88777 13.5493 5.17725 13.1151C5.46674 12.6809 5.65022 12.1848 5.71293 11.6667V9.16667C5.76256 8.10923 6.09902 7.08523 6.68622 6.20442C7.27343 5.32361 8.08926 4.61919 9.04626 4.16667" stroke="#1D1D1F" stroke-width="1.5" stroke-linecap="round" stroke-linejoin="round"/>
<path d="M8.21295 14.1667V15.0001C8.21295 15.6631 8.47634 16.299 8.94518 16.7678C9.41403 17.2367 10.0499 17.5001 10.713 17.5001C11.376 17.5001 12.0119 17.2367 12.4807 16.7678C12.9496 16.299 13.213 15.6631 13.213 15.0001V14.1667" stroke="#1D1D1F" stroke-width="1.5" stroke-linecap="round" stroke-linejoin="round"/>
</g>
<defs>
<clipPath id="clip0_1_1188">
<rect width="20" height="20" fill="white" transform="translate(0.712952)"/>
</clipPath>
</defs>
</svg>
