<svg width="21" height="20" viewBox="0 0 21 20" fill="none" xmlns="http://www.w3.org/2000/svg">
<g clip-path="url(#clip0_1_1048)">
<path d="M10.0601 20C15.583 20 20.0601 15.5228 20.0601 10C20.0601 4.47717 15.583 0 10.0601 0C4.53729 0 0.0601196 4.47717 0.0601196 10C0.0601196 15.5228 4.53729 20 10.0601 20Z" fill="#8DC351"/>
<path d="M14.7435 8.30652C14.2702 8.06652 13.7002 8.01652 13.0402 8.15986C13.6102 7.41652 13.6302 6.60319 13.1002 5.72652C12.9102 5.40652 12.6802 5.15986 12.4068 4.98986C12.1335 4.81652 11.8335 4.71986 11.4968 4.69652C11.1635 4.67319 10.8202 4.69652 10.4768 4.76319C10.1302 4.83319 9.75015 4.94319 9.33349 5.09986L8.42015 3.18652L7.25015 3.74319L8.13682 5.60319C7.93349 5.69986 7.62682 5.85319 7.21682 6.05986L6.32349 4.18319L5.15349 4.73986L6.06682 6.65319C5.90349 6.73652 5.65682 6.85652 5.33349 7.01319L3.72015 7.77319L4.31349 9.01986L5.15682 8.61652C5.54015 8.43319 5.85015 8.49652 6.08015 8.80986L7.12015 10.9899C7.17015 10.9665 7.21349 10.9499 7.24682 10.9399L7.12682 10.9965L8.58349 14.0499C8.66682 14.3265 8.58015 14.5265 8.32682 14.6465L7.48349 15.0499L7.91015 16.5532L9.43015 15.8299C9.52682 15.7832 9.66682 15.7199 9.85015 15.6332C10.0335 15.5499 10.1702 15.4865 10.2635 15.4399L11.1868 17.3765L12.3568 16.8199L11.4435 14.9065C11.6602 14.8099 11.9702 14.6665 12.3735 14.4732L13.2835 16.3799L14.4535 15.8232L13.5302 13.8865C13.9368 13.6699 14.2868 13.4532 14.5802 13.2465C14.8735 13.0365 15.1402 12.8032 15.3768 12.5432C15.6135 12.2832 15.7868 12.0199 15.9002 11.7465C16.0135 11.4765 16.0702 11.1732 16.0668 10.8365C16.0668 10.5032 15.9968 10.1465 15.8602 9.76986C15.5902 9.03319 15.2202 8.54319 14.7435 8.30652ZM7.89682 7.41319C7.93349 7.39652 8.03015 7.34652 8.19349 7.26652C8.35682 7.18652 8.49349 7.11652 8.60015 7.06319C8.70682 7.00986 8.85682 6.94652 9.05015 6.87319C9.24349 6.79986 9.40682 6.74652 9.54682 6.70986C9.68682 6.67319 9.84349 6.64986 10.0235 6.63652C10.2035 6.62319 10.3568 6.63652 10.4902 6.67652C10.6202 6.71652 10.7502 6.78652 10.8735 6.88652C10.9968 6.98652 11.1002 7.11986 11.1802 7.28652C11.2468 7.42986 11.2868 7.56986 11.2968 7.70652C11.3068 7.84319 11.2835 7.97319 11.2302 8.09652C11.1768 8.21986 11.1168 8.33319 11.0468 8.43652C10.9768 8.53986 10.8768 8.64652 10.7468 8.75319C10.6135 8.85986 10.4968 8.94986 10.3968 9.02319C10.2935 9.09652 10.1635 9.17652 10.0002 9.26319C9.83682 9.34986 9.71349 9.41652 9.62682 9.45986C9.54349 9.50319 9.42349 9.55986 9.27349 9.62986C9.12349 9.69986 9.03349 9.73986 9.01015 9.74986L7.89682 7.41319ZM13.5568 11.0632C13.5635 11.2032 13.5502 11.3332 13.5168 11.4565C13.4802 11.5799 13.4168 11.7032 13.3268 11.8265C13.2335 11.9532 13.1402 12.0632 13.0435 12.1565C12.9468 12.2532 12.8235 12.3565 12.6735 12.4632C12.5235 12.5732 12.3902 12.6632 12.2702 12.7332C12.1535 12.8065 12.0102 12.8865 11.8402 12.9765C11.6702 13.0665 11.5402 13.1332 11.4435 13.1799C11.3468 13.2265 11.2235 13.2832 11.0768 13.3499C10.9302 13.4165 10.8335 13.4599 10.7935 13.4799L9.57015 10.9132C9.61015 10.8932 9.73015 10.8332 9.92682 10.7332C10.1235 10.6332 10.2868 10.5532 10.4135 10.4932C10.5402 10.4332 10.7168 10.3565 10.9468 10.2665C11.1768 10.1765 11.3735 10.1099 11.5402 10.0665C11.7068 10.0232 11.8935 9.99319 12.1035 9.96986C12.3135 9.94652 12.4968 9.95652 12.6502 9.99319C12.8035 10.0299 12.9535 10.1032 13.0968 10.2099C13.2402 10.3165 13.3568 10.4599 13.4435 10.6399C13.5135 10.7832 13.5502 10.9232 13.5568 11.0632Z" fill="white"/>
</g>
<defs>
<clipPath id="clip0_1_1048">
<rect width="20" height="20" fill="white" transform="translate(0.0598755)"/>
</clipPath>
</defs>
</svg>
