<svg width="21" height="20" viewBox="0 0 21 20" fill="none" xmlns="http://www.w3.org/2000/svg">
<g clip-path="url(#clip0_1_1051)">
<path d="M10.0601 20C15.583 20 20.0601 15.5228 20.0601 10C20.0601 4.47715 15.583 0 10.0601 0C4.53727 0 0.0601196 4.47715 0.0601196 10C0.0601196 15.5228 4.53727 20 10.0601 20Z" fill="#EB0029"/>
<path fill-rule="evenodd" clip-rule="evenodd" d="M5.53912 5.35789C5.63076 5.60145 9.49831 15.3033 9.50743 15.3125C9.51794 15.323 15.0462 8.61722 15.0601 8.57708C15.0671 8.557 13.1386 6.72706 13.0878 6.7055C13.0664 6.69643 11.3695 6.38145 9.31695 6.00553C7.26434 5.62961 5.57036 5.31867 5.5525 5.31458C5.5249 5.30823 5.5229 5.31475 5.53912 5.35789ZM9.67858 6.60615C11.1663 6.87897 12.3835 7.10801 12.3835 7.11515C12.3835 7.12834 10.3661 8.80747 10.3031 8.84673C10.2737 8.86508 10.0367 8.6762 8.62123 7.50604C6.74704 5.95672 6.93151 6.11126 6.95528 6.11061C6.96534 6.11034 8.19083 6.33333 9.67858 6.60615ZM8.31778 7.93618C9.53759 8.94626 10.0433 9.37615 10.0385 9.39878C10.0347 9.41639 9.91364 10.4137 9.76945 11.6151C9.62526 12.8164 9.50303 13.8122 9.49781 13.8278C9.49261 13.8435 8.83273 12.211 8.03144 10.2002C7.23014 8.18936 6.56964 6.53211 6.56365 6.51743C6.55769 6.50275 6.56119 6.49409 6.57147 6.49819C6.58175 6.50226 7.36759 7.14937 8.31778 7.93618ZM13.5663 7.86534C13.8814 8.16337 14.1358 8.41047 14.1318 8.4145C14.1191 8.42712 11.0444 8.97947 11.0168 8.97408C10.9934 8.9695 12.953 7.32351 12.9819 7.32351C12.9883 7.32351 13.2514 7.56734 13.5663 7.86534ZM14.0205 9.01704C13.9304 9.14803 10.0394 13.8579 10.0357 13.8403C10.0332 13.8283 10.1463 12.8703 10.287 11.7113L10.5427 9.604L12.2491 9.29308C13.1876 9.12204 13.976 8.98133 14.0012 8.98034C14.043 8.9787 14.0446 8.98189 14.0205 9.01704Z" fill="white"/>
</g>
<defs>
<clipPath id="clip0_1_1051">
<rect width="20" height="20" fill="white" transform="translate(0.0598755)"/>
</clipPath>
</defs>
</svg>
