<svg width="20" height="13" viewBox="0 0 20 13" fill="none" xmlns="http://www.w3.org/2000/svg">
<path fill-rule="evenodd" clip-rule="evenodd" d="M19.9386 1.79175C19.9386 1.17043 19.4611 0.666748 18.872 0.666748H17.8053C17.2162 0.666748 16.7386 1.17043 16.7386 1.79175V11.5417C16.7386 12.1631 17.2162 12.6667 17.8053 12.6667H18.872C19.4611 12.6667 19.9386 12.1631 19.9386 11.5417V1.79175ZM12.5053 3.06675H13.572C14.1611 3.06675 14.6386 3.58252 14.6386 4.21875V11.5147C14.6386 12.151 14.1611 12.6667 13.572 12.6667H12.5053C11.9162 12.6667 11.4386 12.151 11.4386 11.5147V4.21875C11.4386 3.58252 11.9162 3.06675 12.5053 3.06675ZM8.17198 5.66675H7.10531C6.51621 5.66675 6.03865 6.18908 6.03865 6.83341V11.5001C6.03865 12.1444 6.51621 12.6667 7.10531 12.6667H8.17198C8.76108 12.6667 9.23865 12.1444 9.23865 11.5001V6.83341C9.23865 6.18908 8.76108 5.66675 8.17198 5.66675ZM2.87198 8.06675H1.80531C1.21621 8.06675 0.738647 8.58162 0.738647 9.21675V11.5167C0.738647 12.1519 1.21621 12.6667 1.80531 12.6667H2.87198C3.46108 12.6667 3.93865 12.1519 3.93865 11.5167V9.21675C3.93865 8.58162 3.46108 8.06675 2.87198 8.06675Z" fill="black"/>
</svg>
