<svg width="21" height="13" viewBox="0 0 21 13" fill="none" xmlns="http://www.w3.org/2000/svg">
<g clip-path="url(#clip0_1_1006)">
<mask id="mask0_1_1006" style="mask-type:luminance" maskUnits="userSpaceOnUse" x="0" y="0" width="21" height="13">
<path d="M20.0609 0.225098H0.0608521V12.7179H20.0609V0.225098Z" fill="white"/>
</mask>
<g mask="url(#mask0_1_1006)">
<path fill-rule="evenodd" clip-rule="evenodd" d="M20.0216 12.0705C20.0216 12.4385 19.7212 12.7389 19.3533 12.7389H0.705683C0.337804 12.7389 0.0374146 12.4385 0.0374146 12.0705V0.914298C0.0374146 0.546344 0.337804 0.24585 0.705683 0.24585H19.3533C19.7212 0.24585 20.0216 0.546344 20.0216 0.914298L20.0216 12.0705Z" fill="#14477C"/>
<path fill-rule="evenodd" clip-rule="evenodd" d="M12.4264 10.0765L12.6103 10.0729L12.7946 10.0616L12.9746 10.0352L13.1511 10.0052L13.3238 9.96386L13.4965 9.91899L13.6616 9.8587L13.8269 9.79509L13.9844 9.72346L14.1383 9.64472L14.2886 9.55824L14.4351 9.46455L14.5777 9.36323L14.7129 9.25801L14.8404 9.14541L14.9679 9.02501L15.0844 8.90111L15.1973 8.7697L15.306 8.63446L15.4074 8.49572L15.4974 8.34919L15.5877 8.1991L15.6627 8.04512L15.7378 7.88375L15.8016 7.72208L15.8581 7.55326L15.9068 7.38415L15.9479 7.21148L15.9782 7.03108L16.0008 6.85475L16.0156 6.67056L16.0192 6.48684L16.0156 6.3026L16.0008 6.11859L15.9782 5.94209L15.9479 5.76586L15.9068 5.59287L15.8581 5.42409L15.8016 5.25494L15.7378 5.09358L15.6627 4.93575L15.5877 4.78184L15.4974 4.63168L15.4074 4.48522L15.306 4.34638L15.1973 4.21117L15.0844 4.07978L14.9679 3.95585L14.8404 3.83938L14.7129 3.72674L14.5777 3.61796L14.4351 3.52019L14.2886 3.42624L14.1383 3.34004L13.9844 3.261L13.8269 3.18967L13.6616 3.12604L13.4965 3.06961L13.3238 3.02085L13.1511 2.97954L12.9746 2.94952L12.7946 2.92694L12.6103 2.91182L12.4264 2.9082L12.2425 2.91182L12.0624 2.92694L11.8821 2.94952L11.7058 2.97954L11.5329 3.02085L11.3603 3.06961L11.1949 3.12604L11.0336 3.18967L10.8758 3.261L10.7219 3.34004L10.5718 3.42624L10.4254 3.52019L10.2866 3.61796L10.1511 3.72674L10.0198 3.83938L9.89613 3.95585L9.77579 4.07978L9.66707 4.21117L9.55802 4.34638L9.46048 4.48522L9.36662 4.63168L9.28043 4.78184L9.2014 4.93575L9.13011 5.09358L9.06621 5.25494L9.01005 5.42409L8.96134 5.59287L8.91974 5.76586L8.89 5.94209L8.86736 6.11859L8.85229 6.3026L8.84845 6.48684L8.85229 6.67056L8.86736 6.85475L8.89 7.03108L8.91974 7.21148L8.96134 7.38415L9.01005 7.55326L9.06621 7.72208L9.13011 7.88375L9.2014 8.04512L9.28043 8.1991L9.36662 8.34919L9.46048 8.49572L9.55802 8.63446L9.66707 8.7697L9.77579 8.90111L9.89613 9.02501L10.0198 9.14541L10.1511 9.25801L10.2866 9.36323L10.4254 9.46455L10.5718 9.55824L10.7219 9.64472L10.8758 9.72346L11.0336 9.79509L11.1949 9.8587L11.3603 9.91899L11.5329 9.96386L11.7058 10.0052L11.8821 10.0352L12.0624 10.0616L12.2425 10.0729L12.4264 10.0765Z" fill="#FBB230"/>
<path fill-rule="evenodd" clip-rule="evenodd" d="M7.63211 10.0765L7.81606 10.0729L7.99612 10.0616L8.17652 10.0352L8.35274 10.0052L8.52563 9.96386L8.69852 9.91899L8.86351 9.8587L9.02483 9.79509L9.18265 9.72346L9.33652 9.64472L9.48666 9.55824L9.63308 9.46455L9.77188 9.36323L9.90735 9.25801L10.0387 9.14541L10.1623 9.02501L10.2827 8.90111L10.3916 8.7697L10.5005 8.63446L10.598 8.49572L10.6918 8.34919L10.778 8.1991L10.857 8.04512L10.9284 7.88375L10.9922 7.72208L11.0484 7.55326L11.0974 7.38415L11.1387 7.21148L11.1685 7.03108L11.191 6.85475L11.2062 6.67056L11.21 6.48684L11.2062 6.3026L11.191 6.11859L11.1685 5.94209L11.1387 5.76586L11.0974 5.59287L11.0484 5.42409L10.9922 5.25494L10.9284 5.09358L10.857 4.93575L10.778 4.78184L10.6918 4.63168L10.598 4.48522L10.5005 4.34638L10.3916 4.21117L10.2827 4.07978L10.1623 3.95585L10.0387 3.83938L9.90735 3.72674L9.77188 3.61796L9.63308 3.52019L9.48666 3.42624L9.33652 3.34004L9.18265 3.261L9.02483 3.18967L8.86351 3.12604L8.69852 3.06961L8.52563 3.02085L8.35274 2.97954L8.17652 2.94952L7.99612 2.92694L7.81606 2.91182L7.63211 2.9082L7.44821 2.91182L7.26403 2.92694L7.08391 2.94952L6.90746 2.97954L6.73503 3.02085L6.56214 3.06961L6.39692 3.12604L6.23171 3.18967L6.07417 3.261L5.9203 3.34004L5.76992 3.42624L5.62375 3.52019L5.48107 3.61796L5.34568 3.72674L5.21815 3.83938L5.09063 3.95585L4.97418 4.07978L4.86126 4.21117L4.75256 4.34638L4.65122 4.48522L4.56113 4.63168L4.47086 4.78184L4.39592 4.93575L4.32077 5.09358L4.2569 5.25494L4.20074 5.42409L4.15169 5.59287L4.11431 5.76586L4.08038 5.94209L4.0581 6.11859L4.04295 6.3026L4.03937 6.48684L4.04295 6.67056L4.0581 6.85475L4.08038 7.03108L4.11431 7.21148L4.15169 7.38415L4.20074 7.55326L4.2569 7.72208L4.32077 7.88375L4.39592 8.04512L4.47086 8.1991L4.56113 8.34919L4.65122 8.49572L4.75256 8.63446L4.86126 8.7697L4.97418 8.90111L5.09063 9.02501L5.21815 9.14541L5.34568 9.25801L5.48107 9.36323L5.62375 9.46455L5.76992 9.55824L5.9203 9.64472L6.07417 9.72346L6.23171 9.79509L6.39692 9.8587L6.56214 9.91899L6.73503 9.96386L6.90746 10.0052L7.08391 10.0352L7.26403 10.0616L7.44821 10.0729L7.63211 10.0765Z" fill="#EB2230"/>
<path fill-rule="evenodd" clip-rule="evenodd" d="M9.61066 4.28246H11.5143V4.08716H9.77587L9.61066 4.28246Z" fill="#FBB230"/>
<path fill-rule="evenodd" clip-rule="evenodd" d="M9.32599 4.71435H11.5149V4.51904H9.43865L9.32599 4.71435Z" fill="#FBB230"/>
<path fill-rule="evenodd" clip-rule="evenodd" d="M9.11176 5.14647H11.5146V4.95117H9.19817L9.11176 5.14647Z" fill="#FBB230"/>
<path fill-rule="evenodd" clip-rule="evenodd" d="M8.96527 5.57791H11.5146V5.38647H9.02527L8.96527 5.57791Z" fill="#FBB230"/>
<path fill-rule="evenodd" clip-rule="evenodd" d="M9.0508 7.67351H11.5213V7.47827H8.99103L9.0508 7.67351Z" fill="#FBB230"/>
<path fill-rule="evenodd" clip-rule="evenodd" d="M9.23145 8.1054H11.5216V7.91016H9.14142L9.23145 8.1054Z" fill="#FBB230"/>
<path fill-rule="evenodd" clip-rule="evenodd" d="M9.49041 8.5371H11.5215V8.3418H9.36652L9.49041 8.5371Z" fill="#FBB230"/>
<path fill-rule="evenodd" clip-rule="evenodd" d="M9.84387 8.96898H11.522V8.77368H9.6712L9.84387 8.96898Z" fill="#FBB230"/>
<path fill-rule="evenodd" clip-rule="evenodd" d="M8.87872 6.00997H11.5143V5.81836H8.9162L8.87872 6.00997Z" fill="#FBB230"/>
<path fill-rule="evenodd" clip-rule="evenodd" d="M10.4852 7.24163H11.4914V7.04639H10.5229L10.4852 7.24163Z" fill="#FBB230"/>
<path fill-rule="evenodd" clip-rule="evenodd" d="M10.5644 6.80956H11.4918V6.61426H10.6021L10.5644 6.80956Z" fill="#FBB230"/>
<path fill-rule="evenodd" clip-rule="evenodd" d="M8.81146 6.61426H9.07421V6.80956H8.82671L8.81146 6.61426Z" fill="#FBB230"/>
<path fill-rule="evenodd" clip-rule="evenodd" d="M15.6746 8.50684C15.7685 8.50684 15.8436 8.58558 15.8436 8.6756C15.8436 8.76959 15.7685 8.84472 15.6746 8.84472C15.5807 8.84472 15.5058 8.76959 15.5058 8.6756C15.5058 8.58558 15.5807 8.50684 15.6746 8.50684ZM15.6746 8.53681C15.7536 8.53681 15.8172 8.6007 15.8172 8.6756C15.8172 8.75469 15.7536 8.81853 15.6746 8.81853C15.5997 8.81853 15.5355 8.75469 15.5355 8.6756C15.5355 8.6007 15.5997 8.53681 15.6746 8.53681Z" fill="#FBB230"/>
<path d="M15.6108 8.75103V8.6084H15.6707C15.6856 8.6084 15.6969 8.6084 15.7046 8.61224C15.7118 8.61585 15.7159 8.61969 15.7194 8.6233C15.7231 8.63098 15.7269 8.63843 15.7269 8.64588C15.7269 8.65717 15.7231 8.6684 15.7194 8.67229C15.7118 8.67974 15.7007 8.68358 15.6892 8.68714C15.6969 8.69103 15.7007 8.69487 15.7045 8.69843C15.7081 8.70227 15.7158 8.70972 15.7194 8.72101L15.7382 8.75103H15.7045L15.6817 8.71717C15.6778 8.70588 15.6706 8.70232 15.6668 8.69848C15.6668 8.69487 15.663 8.69487 15.6593 8.69103C15.6555 8.69103 15.6517 8.69103 15.6442 8.69103H15.6404V8.75103H15.6108ZM15.6405 8.6684H15.6595C15.6743 8.6684 15.6818 8.6684 15.6857 8.66485C15.6892 8.66485 15.6934 8.66484 15.6934 8.66095C15.697 8.65717 15.697 8.65356 15.697 8.64966C15.697 8.64582 15.697 8.64221 15.6934 8.63843C15.6892 8.63447 15.6857 8.63447 15.6818 8.63092C15.6818 8.63092 15.6744 8.63092 15.6631 8.63092H15.6406V8.6684H15.6405Z" fill="#FBB230"/>
<path fill-rule="evenodd" clip-rule="evenodd" d="M15.6364 7.09521C15.7302 7.09521 15.8052 7.17034 15.8052 7.26433C15.8052 7.3582 15.7302 7.43315 15.6364 7.43315C15.5425 7.43315 15.4676 7.3582 15.4676 7.26433C15.4676 7.17034 15.5425 7.09521 15.6364 7.09521ZM15.6364 7.12519C15.7154 7.12519 15.7791 7.18903 15.7791 7.26427C15.7791 7.34301 15.7154 7.40691 15.6364 7.40691C15.5574 7.40691 15.4937 7.34301 15.4937 7.26427C15.4937 7.18908 15.5573 7.12519 15.6364 7.12519Z" fill="white"/>
<path d="M15.5726 7.33543V7.19629H15.6326C15.6477 7.19629 15.659 7.19629 15.6665 7.20013C15.6703 7.20013 15.6774 7.20764 15.6813 7.21142C15.6852 7.21887 15.6887 7.22632 15.6887 7.23405C15.6887 7.24534 15.6852 7.25274 15.6774 7.26013C15.6739 7.26764 15.6627 7.27142 15.6514 7.27531C15.6552 7.27887 15.6627 7.28276 15.6665 7.2866C15.6703 7.29016 15.6739 7.29766 15.6813 7.30895L15.7003 7.33543H15.6664L15.6438 7.30534C15.6364 7.29405 15.6326 7.2866 15.6287 7.2866C15.6251 7.28276 15.6251 7.27887 15.6215 7.27887C15.6174 7.27887 15.6138 7.27887 15.6064 7.27887H15.5989V7.33537L15.5726 7.33543ZM15.599 7.25663H15.6216C15.6364 7.25663 15.6439 7.25663 15.6477 7.25279C15.6514 7.25279 15.6552 7.2489 15.6552 7.2489C15.659 7.24534 15.659 7.24145 15.659 7.23761C15.659 7.23405 15.6552 7.22632 15.6552 7.22632C15.6514 7.22276 15.6477 7.21887 15.6439 7.21887C15.6401 7.21887 15.6326 7.21887 15.6216 7.21887H15.599L15.599 7.25663Z" fill="white"/>
<path fill-rule="evenodd" clip-rule="evenodd" d="M13.2231 7.36147L13.467 6.08496H13.771L13.8088 6.21631C13.865 6.15986 13.9588 6.08496 14.1466 6.08496L14.0527 6.4229C13.9701 6.4229 13.8423 6.40777 13.7375 6.65556C13.6587 6.84341 13.621 7.15493 13.5796 7.36147H13.2231Z" fill="white"/>
<path fill-rule="evenodd" clip-rule="evenodd" d="M8.61975 5.76587H8.95735L8.88239 6.10376H9.07018L9.01379 6.36657H8.84497L8.75104 6.87356C8.73236 6.96749 8.75104 7.06141 8.93884 7.02365L8.90142 7.30542C8.69872 7.45935 8.29293 7.34668 8.35677 6.96749L8.61975 5.76587Z" fill="white"/>
<path fill-rule="evenodd" clip-rule="evenodd" d="M10.1256 6.79826C10.163 6.59172 10.257 6.08496 9.65256 6.08496C9.08952 6.08496 9.01433 6.64817 9.01433 6.72307C8.99582 6.79826 8.99582 7.36147 9.59634 7.36147C9.74642 7.36147 9.9568 7.34273 10.0507 7.30525L10.1069 7.04227C10.0507 7.06124 9.85909 7.07998 9.709 7.07998C9.57766 7.07998 9.35244 7.07998 9.38986 6.7982L10.1256 6.79826Z" fill="white"/>
<path fill-rule="evenodd" clip-rule="evenodd" d="M6.0292 7.36156L6.3296 5.82202H5.74391L5.33085 6.76088L5.25571 5.82202H4.71138L4.41095 7.36156H4.74881L4.9743 6.25388L5.06819 7.36156H5.38731L5.87527 6.27262L5.66871 7.36156H6.0292Z" fill="white"/>
<path fill-rule="evenodd" clip-rule="evenodd" d="M6.42289 6.12249L6.36667 6.40426C6.4606 6.40426 6.68576 6.36655 6.79836 6.36655C6.91103 6.36655 7.06111 6.34787 7.00495 6.53567C6.91103 6.53567 6.29143 6.44174 6.19756 6.98621C6.14524 7.34667 6.57315 7.47813 6.83584 7.30541L6.87349 7.38037H7.1924L7.32398 6.68569C7.46283 6.05859 6.85848 6.0473 6.42289 6.12249Z" fill="white"/>
<path fill-rule="evenodd" clip-rule="evenodd" d="M12.0135 6.23524C11.9271 6.18257 11.8745 6.18257 11.7657 6.18257C11.6605 6.18257 11.4127 6.28779 11.3788 6.56928C11.3262 6.92234 11.5553 7.08017 11.8894 6.97495L11.9797 7.27541C11.4091 7.56074 10.8644 7.11759 11.0447 6.42664C11.191 5.9047 11.8819 5.58939 12.2275 6.0212L12.0135 6.23524Z" fill="white"/>
<path fill-rule="evenodd" clip-rule="evenodd" d="M14.9906 6.23535C14.0706 5.54431 13.7138 7.36177 14.4272 7.36177C14.5398 7.36177 14.6527 7.30555 14.7276 7.26784L14.7651 7.36177H15.1407L15.4411 5.74707H15.0843L14.9906 6.23535Z" fill="white"/>
<path fill-rule="evenodd" clip-rule="evenodd" d="M12.2837 6.12249L12.2275 6.40426C12.3211 6.40426 12.5467 6.36655 12.659 6.36655C12.7719 6.36655 12.9032 6.34787 12.8657 6.53567C12.7719 6.53567 12.1524 6.44174 12.0588 6.98621C12.0207 7.24896 12.2463 7.38036 12.4153 7.38036C12.5841 7.38036 12.6405 7.34289 12.6967 7.30541L12.7342 7.38036H13.0535L13.1848 6.68569C13.3276 6.05859 12.7229 6.0473 12.2837 6.12249Z" fill="white"/>
<path fill-rule="evenodd" clip-rule="evenodd" d="M9.38947 6.5544H9.82121C9.86998 6.21262 9.46075 6.2803 9.38947 6.5544Z" fill="#EB2230"/>
<path fill-rule="evenodd" clip-rule="evenodd" d="M6.94927 6.7984C6.89283 6.7984 6.76148 6.76092 6.64858 6.83611C6.53626 6.91101 6.49856 7.04242 6.63007 7.08012C6.74245 7.11754 6.89283 7.04242 6.93025 6.92975L6.94927 6.7984Z" fill="#EB2230"/>
<path fill-rule="evenodd" clip-rule="evenodd" d="M14.8221 6.4418C14.7095 6.29143 14.4655 6.40438 14.3903 6.68581C14.3342 6.87361 14.4468 7.00501 14.5594 7.00501C14.796 7.00507 14.9386 6.61836 14.8221 6.4418Z" fill="#FBB230"/>
<path fill-rule="evenodd" clip-rule="evenodd" d="M12.8289 6.7984C12.7728 6.7984 12.6414 6.76092 12.5285 6.83611C12.4161 6.91101 12.3784 7.04242 12.51 7.08012C12.6224 7.11754 12.7915 7.04242 12.8102 6.92975L12.8289 6.7984Z" fill="#FBB230"/>
<path fill-rule="evenodd" clip-rule="evenodd" d="M10.1253 7.38032L10.1443 7.24892L10.3695 6.10376H10.6697L10.7071 6.23516C10.7636 6.17872 10.8575 6.10376 11.0452 6.10376L10.9513 6.4417C10.88 6.4417 10.7297 6.42657 10.6171 6.72703C10.5532 6.89975 10.5157 7.19276 10.4819 7.38032H10.1253Z" fill="white"/>
<path fill-rule="evenodd" clip-rule="evenodd" d="M8.30826 6.41184H8.29308H8.27824L8.26339 6.408L8.24826 6.40439H8.23314L8.21824 6.40049C8.15056 6.3931 8.09434 6.3892 8.02689 6.3931C7.854 6.40794 7.7791 6.51671 7.92534 6.59935C8.04179 6.66708 8.13205 6.65574 8.21056 6.73098C8.37967 6.88857 8.29319 7.19282 8.1054 7.30909L8.07182 7.32422L8.03434 7.33935L7.99308 7.35035L7.95566 7.36164C7.77531 7.39167 7.53136 7.38422 7.3548 7.32422L7.40357 7.07247C7.5462 7.1025 7.77915 7.1664 7.88792 7.0915C8.01187 7.00886 7.89921 6.9111 7.80889 6.86984L7.76402 6.85488L7.71915 6.8362C7.3623 6.67448 7.44517 6.24267 7.78276 6.15264C7.91795 6.12261 8.05314 6.12261 8.19216 6.1339H8.21829C8.25222 6.13751 8.28225 6.14141 8.31222 6.1488H8.32712L8.33841 6.15264H8.3497L8.35709 6.15648H8.36838L8.30826 6.41184Z" fill="white"/>
</g>
</g>
<defs>
<clipPath id="clip0_1_1006">
<rect width="20" height="12.4928" fill="white" transform="translate(0.0601196 0.225098)"/>
</clipPath>
</defs>
</svg>
