<svg width="29" height="28" viewBox="0 0 29 28" fill="none" xmlns="http://www.w3.org/2000/svg">
<path d="M14.6601 11.6667C16.9152 11.6667 18.7434 9.8385 18.7434 7.58333C18.7434 5.32817 16.9152 3.5 14.6601 3.5C12.4049 3.5 10.5767 5.32817 10.5767 7.58333C10.5767 9.8385 12.4049 11.6667 14.6601 11.6667Z" stroke="white" stroke-width="2" stroke-linejoin="round"/>
<path d="M24.16 17.5V23.3333" stroke="white" stroke-width="1.5" stroke-linecap="round" stroke-linejoin="round"/>
<path d="M26.4934 19.8333L24.1601 17.5L21.8267 19.8333" stroke="white" stroke-width="1.5" stroke-linecap="round" stroke-linejoin="round"/>
<path d="M18.3267 16.3333H14.2434C14.0886 16.3333 14.0113 16.3333 13.9458 16.3343C9.63002 16.4049 6.14842 19.8866 6.07779 24.2024C6.07672 24.2678 6.07672 24.3452 6.07672 24.4999V24.4999H18.3267" stroke="white" stroke-width="2" stroke-linecap="round" stroke-linejoin="round"/>
</svg>
