<svg width="19" height="18" viewBox="0 0 19 18" fill="none" xmlns="http://www.w3.org/2000/svg">
<path fill-rule="evenodd" clip-rule="evenodd" d="M8.00625 5.36044C8.00625 4.58901 8.66137 4.29231 9.74641 4.29231C11.3023 4.29231 13.2677 4.74725 14.8236 5.55824V0.90989C13.1244 0.257143 11.4456 0 9.74641 0C5.5905 0 2.82672 2.0967 2.82672 5.5978C2.82672 11.0571 10.6062 10.1868 10.6062 12.5407C10.6062 13.4505 9.78735 13.7473 8.64089 13.7473C6.94168 13.7473 4.7716 13.0747 3.05192 12.1648V16.8725C4.95585 17.6637 6.88026 18 8.64089 18C12.8992 18 15.8267 15.9626 15.8267 12.422C15.8062 6.52747 8.00625 7.57582 8.00625 5.36044Z" fill="#635BFF"/>
</svg>
