<svg width="21" height="20" viewBox="0 0 21 20" fill="none" xmlns="http://www.w3.org/2000/svg">
<g clip-path="url(#clip0_1_1044)">
<path d="M10.0604 20C15.5832 20 20.0604 15.5228 20.0604 10C20.0604 4.47715 15.5832 0 10.0604 0C4.53752 0 0.0603638 4.47715 0.0603638 10C0.0603638 15.5228 4.53752 20 10.0604 20Z" fill="#26A17B"/>
<path d="M15.526 7.66625C15.0266 7.31187 14.4922 6.93375 13.9697 6.55875C13.9579 6.55 13.9466 6.54125 13.9322 6.5325C13.871 6.48222 13.8017 6.4427 13.7272 6.41562L13.721 6.4125C12.3229 6.06943 10.9252 5.72484 9.52786 5.37875L5.78786 4.45562L5.68974 4.42937C5.57724 4.3975 5.44724 4.36187 5.30849 4.37937C5.27048 4.3852 5.23422 4.39928 5.20224 4.42062L5.16724 4.45C5.12341 4.49494 5.08992 4.5489 5.06911 4.60812L5.06036 4.63187V4.76625L5.06661 4.78687C5.85411 7.0275 6.66286 9.30062 7.44286 11.5C8.04349 13.1937 8.66786 14.9475 9.27661 16.67C9.31411 16.7869 9.42099 16.8638 9.55411 16.875H9.58286C9.64103 16.8765 9.69853 16.8623 9.74933 16.8339C9.80014 16.8056 9.84237 16.7641 9.87161 16.7138L12.1591 13.3306C12.716 12.5075 13.2735 11.6819 13.831 10.8587L14.5154 9.845C14.8904 9.28875 15.2779 8.71438 15.6622 8.155L15.6822 8.12625V8.09062C15.691 7.98812 15.6935 7.77812 15.526 7.66625ZM12.846 8.89937C12.3085 9.18313 11.7604 9.47625 11.2085 9.76625L12.1735 8.7175C12.5747 8.27812 12.9935 7.82375 13.4035 7.37875L13.4122 7.37C13.4466 7.32312 13.4904 7.27937 13.5366 7.2325C13.5679 7.20062 13.6029 7.16812 13.6347 7.13C13.8485 7.28 14.0647 7.43187 14.2729 7.58125C14.4229 7.68937 14.576 7.79812 14.7322 7.90625C14.1013 8.23312 13.4725 8.56417 12.846 8.89937ZM11.466 8.75875C11.0529 9.2125 10.6254 9.67812 10.201 10.1381C9.37737 9.12469 8.55133 8.11323 7.72286 7.10375L6.61099 5.7475L6.60849 5.74437C6.52474 5.64812 6.44349 5.5425 6.36286 5.44312C6.31099 5.37562 6.25599 5.31125 6.20099 5.24375C6.53599 5.33125 6.87411 5.41375 7.20599 5.4925C7.49786 5.56312 7.80099 5.63625 8.09849 5.7125L13.1266 6.95125C12.5691 7.555 12.0085 8.16687 11.466 8.75875ZM10.0129 14.4675C10.0447 14.16 10.0797 13.8438 10.1085 13.5331C10.1347 13.2837 10.1604 13.0294 10.1866 12.7863C10.2266 12.3962 10.2704 11.9925 10.3054 11.5969L10.3135 11.5269C10.3422 11.2744 10.371 11.0144 10.3885 10.7531C10.4221 10.7341 10.457 10.7174 10.4929 10.7031C10.536 10.6831 10.5791 10.6656 10.6222 10.6394C11.2893 10.2839 11.9574 9.93031 12.6266 9.57875C13.2941 9.2275 13.9785 8.86375 14.6572 8.50375C14.0414 9.40828 13.428 10.3145 12.8172 11.2225C12.3004 11.9862 11.7691 12.7744 11.2404 13.5506C11.0329 13.8612 10.816 14.1775 10.611 14.4819C10.3797 14.8219 10.1429 15.17 9.91224 15.5194C9.94099 15.1675 9.97536 14.8131 10.0129 14.4675ZM5.98786 5.935C5.95036 5.82937 5.90911 5.72125 5.87474 5.61875C6.65474 6.57375 7.43974 7.53437 8.20536 8.46562C8.60099 8.94875 8.99661 9.42937 9.39224 9.91562C9.47036 10.0062 9.54849 10.1031 9.62349 10.1969C9.72161 10.3169 9.81974 10.4431 9.92661 10.5631C9.89161 10.8644 9.86286 11.1694 9.83099 11.4619C9.81099 11.6669 9.79099 11.8725 9.76786 12.0806V12.0831C9.75911 12.2144 9.74161 12.3469 9.72724 12.4756L9.66099 13.0587L9.65786 13.0787C9.60599 13.6706 9.54224 14.2681 9.48161 14.8481C9.45599 15.0881 9.43286 15.3344 9.40661 15.5806C9.39224 15.5369 9.37536 15.4925 9.36036 15.4513C9.31633 15.3319 9.27404 15.2119 9.23349 15.0913L8.92411 14.2212L5.98724 5.935" fill="white"/>
</g>
<defs>
<clipPath id="clip0_1_1044">
<rect width="20" height="20" fill="white" transform="translate(0.0598755)"/>
</clipPath>
</defs>
</svg>
