<svg width="21" height="20" viewBox="0 0 21 20" fill="none" xmlns="http://www.w3.org/2000/svg">
<path d="M2.37964 14.9384C2.37964 14.4323 2.50863 13.9345 2.75443 13.492L7.90936 4.21317C8.3663 3.39068 9.16136 2.81032 10.084 2.6258V2.6258C10.4992 2.54275 10.9267 2.54275 11.342 2.6258V2.6258C12.2646 2.81032 13.0596 3.39068 13.5166 4.21317L18.6715 13.492C18.9173 13.9345 19.0463 14.4323 19.0463 14.9384V14.9384C19.0463 16.5833 17.7129 17.9167 16.068 17.9167H5.35789C3.71305 17.9167 2.37964 16.5833 2.37964 14.9384V14.9384Z" stroke="#F23152" stroke-width="1.5"/>
<path d="M10.713 7.49992L10.713 10.8333" stroke="#F23152" stroke-width="1.5" stroke-linecap="round" stroke-linejoin="round"/>
<path d="M10.713 13.3333L10.713 13.75" stroke="#F23152" stroke-width="1.5" stroke-linecap="round" stroke-linejoin="round"/>
</svg>
