<svg width="18" height="13" viewBox="0 0 18 13" fill="none" xmlns="http://www.w3.org/2000/svg">
<path fill-rule="evenodd" clip-rule="evenodd" d="M8.83921 3.06735C11.3058 3.06745 13.678 3.96498 15.4656 5.57443C15.6002 5.69869 15.8154 5.69712 15.948 5.57092L17.2347 4.3411C17.3019 4.27709 17.3393 4.19038 17.3387 4.10017C17.3382 4.00996 17.2997 3.92367 17.2318 3.86041C12.5399 -0.397806 5.13782 -0.397806 0.445908 3.86041C0.377942 3.92363 0.33938 4.00988 0.338753 4.1001C0.338126 4.19031 0.375487 4.27704 0.442569 4.3411L1.72971 5.57092C1.8622 5.69731 2.07753 5.69888 2.21206 5.57443C3.9999 3.96488 6.37241 3.06735 8.83921 3.06735ZM8.83744 7.17524C10.1835 7.17516 11.4816 7.67327 12.4794 8.57279C12.6144 8.70045 12.827 8.69768 12.9585 8.56655L14.2352 7.28238C14.3024 7.21502 14.3397 7.12364 14.3387 7.02869C14.3378 6.93373 14.2986 6.84313 14.23 6.77715C11.1915 3.96328 6.48597 3.96328 3.44746 6.77715C3.37882 6.84313 3.33966 6.93378 3.33876 7.02876C3.33786 7.12375 3.37529 7.21512 3.44267 7.28238L4.71894 8.56655C4.8505 8.69768 5.06309 8.70045 5.19805 8.57279C6.19519 7.67386 7.49223 7.1758 8.83744 7.17524ZM11.3387 9.8944C11.3406 9.99694 11.3038 10.0958 11.2371 10.1676L9.07841 12.557C9.01513 12.6272 8.92886 12.6667 8.83884 12.6667C8.74882 12.6667 8.66255 12.6272 8.59927 12.557L6.44023 10.1676C6.37353 10.0958 6.33684 9.99686 6.33882 9.89431C6.3408 9.79177 6.38127 9.69466 6.45068 9.62592C7.82929 8.34702 9.84839 8.34702 11.227 9.62592C11.2964 9.69472 11.3368 9.79185 11.3387 9.8944Z" fill="black"/>
</svg>
